<svg width="1080" height="1079" viewBox="0 0 1080 1079" fill="none" xmlns="http://www.w3.org/2000/svg">
<rect width="1079.55" height="1079" rx="539.5" fill="#F8F9FA"/>
<rect x="401.988" y="225" width="159.922" height="633.976" rx="79.9609" transform="rotate(30 401.988 225)" fill="#212529"/>
<rect x="856.052" y="225" width="159.922" height="633.976" rx="79.9609" transform="rotate(30 856.052 225)" fill="#212529"/>
<path d="M321.413 620.684C321.537 620.872 321.703 621.029 321.899 621.141C322.593 621.542 323.481 621.304 323.882 620.61L338.041 596.086C339.665 593.274 339.694 589.817 338.118 586.978L328.494 573.131L319.648 559.733L310.024 545.885L302.336 534.241C302.301 534.188 302.263 534.138 302.22 534.091C301.48 533.255 302.024 531.934 303.138 531.862L306.859 531.622L314.873 532.103L319.656 532.792L335.683 533.754L351.709 534.716L367.736 535.678C370.982 535.623 373.962 533.869 375.585 531.058L387.517 510.391C388.997 507.828 387.612 504.561 384.741 503.842C384.337 503.741 383.92 503.697 383.504 503.711L375.67 503.986L365.653 503.384L355.188 503.561L341.165 502.719L319.457 502.622L305.434 501.78L294.968 501.956C286.374 501.441 278.226 505.825 273.921 513.281L272.73 515.344C267.839 523.815 267.995 534.286 273.134 542.607L278.716 551.646L290.431 570.846L302.146 590.046L308.781 600.095L314.967 610.921L321.413 620.684Z" fill="#F8F9FA"/>
<path d="M693.371 568.287C691.891 570.85 693.276 574.117 696.147 574.836C696.551 574.937 696.968 574.981 697.385 574.966L705.219 574.692L715.235 575.293L725.701 575.117L739.724 575.959L762.209 576.504L788.701 577.29C795.631 577.458 802.1 573.827 805.566 567.824L809.074 561.747C813.379 554.291 813.102 545.042 808.358 537.857L803.278 528.706L795.537 516.982L786.034 501.132L774.319 481.932L765.922 467.756L759.476 457.994C759.351 457.806 759.185 457.649 758.99 457.536C758.295 457.135 757.407 457.373 757.006 458.068L742.847 482.592C741.224 485.403 741.195 488.861 742.771 491.699L752.394 505.547L760.463 518.496L770.087 532.343L777.022 543.398C778.064 545.058 777.023 547.237 775.078 547.472C774.897 547.494 774.715 547.497 774.534 547.482L758.003 546.094L741.976 545.132L725.95 544.17L709.923 543.208C708.695 543.134 707.531 543.76 706.916 544.826L693.371 568.287Z" fill="#F8F9FA"/>
<path d="M560.509 645.888C561.84 649.502 562.506 651.309 563.978 652.336C565.45 653.362 567.376 653.362 571.227 653.362H577.474C584.706 653.362 588.322 653.362 590.032 650.99C591.742 648.618 590.598 645.188 588.311 638.327L586.108 631.719L580.096 617.29L572.882 596.849L566.87 582.42L559.655 561.978L548.833 533.12L541.619 513.882L538.012 505.465L531.999 487.428L528.392 479.011L521.178 459.773L510.356 430.915C509.422 428.581 508.956 427.414 508.137 426.589C507.615 426.064 506.997 425.646 506.316 425.357C505.246 424.903 503.989 424.903 501.476 424.903H485.224C482.052 424.903 479.673 427.804 480.295 430.915L483.903 442.939L489.915 457.368L507.951 505.465L518.773 534.323L534.404 576.407L540.416 592.039L547.631 611.278L554.845 630.516L560.509 645.888Z" fill="#212529"/>
</svg>
